<?xml version="1.0" standalone="yes"?>
<svg xmlns="http://www.w3.org/2000/svg" width="1500" height="1500">
<path style="fill:#010101; stroke:none;" d="M0 0L0 1500L1500 1500L1500 0L0 0z"/>
<path style="fill:#6fa91a; stroke:none;" d="M182 91C180.145 180.887 153.962 267.43 150.039 357C145.738 455.223 177.654 551.214 238.211 628C264.866 661.798 300.362 685.659 335 710.421C386.811 747.461 445.009 772.482 502 800.259C515.182 806.684 526.704 818.577 541 822.239C546.849 823.738 555.365 824.052 559.397 818.695C564.603 811.778 559.971 794.902 558.87 787C555.023 759.393 551.853 731.723 549.17 704C543.133 641.615 516.528 577.822 475.572 530C444.718 493.974 406.557 468.484 371 437.718C323.994 397.044 280.179 349.236 249.281 295C221.789 246.744 213.024 192.577 198 140C194.615 128.153 193.116 116.064 190.803 104C189.581 97.6217 189.692 91.5867 182 91z"/>
<path style="fill:#010101; stroke:none;" d="M188 132C188 209.545 160.915 284.43 159.015 362C157.366 429.308 171.027 502.282 203.309 562C235.092 620.796 281.831 662.624 336 700.026C366.461 721.058 397.086 740.986 431 756.039C458.982 768.459 486.786 783.21 514 797.258C527.44 804.196 537.014 814.956 553 815C553.068 790.373 548.621 766.508 546.169 742C543.162 711.949 540.832 682.347 533.116 653C523.397 616.036 502.541 576.077 478.985 546C447.142 505.341 405.839 477.66 367 444.573C330.803 413.735 298.134 378.309 269.884 340C241.162 301.049 221.656 256.419 208.421 210C203.509 192.771 199.696 175.369 195.373 158C193.323 149.76 191.998 139.465 188 132z"/>
<path style="fill:#ffffff; stroke:none;" d="M525 261L525 285L1372 285L1372 1354L161 1354L161 727L130 727L130 1384L1397 1384L1396 261L525 261z"/>
<path style="fill:#a9ff28; stroke:none;" d="M930 340C917.866 342.809 907.281 350.115 896 355.139C880.498 362.043 863.968 367.164 848 372.946C818.962 383.462 789.123 390.497 761 403.781C696.667 434.168 644.672 486.458 618.811 553C608.81 578.734 606.595 605.945 602.729 633C596.511 676.519 602 719.364 602 763C602 772.746 595.843 800.572 608.104 805.066C615.243 807.683 625.734 797.984 631 794.116C650.559 779.747 672.144 767.626 691 752.388C717.188 731.225 741.127 701.157 754.572 670C769.059 636.429 772.629 601.294 780.424 566C789.594 524.484 804.72 480.378 828.746 445C849.458 414.503 877.305 391.735 904 366.911C910.384 360.974 931.31 349.265 930 340z"/>
<path style="fill:#010101; stroke:none;" d="M904 358C858.195 384.068 802.741 389.12 756 413.781C714.226 435.821 675.728 466.266 649.356 506C624.383 543.626 614.992 585.018 609.714 629C606.752 653.687 604.216 678.248 605.911 703C607.378 724.436 608 746.526 608 768C608 778.491 604.675 790.493 610 800C627.53 794.021 643.989 778.83 659 768.141C696.474 741.458 728.034 713.708 748.11 671C769.788 624.887 769.306 572.715 785.861 525C809.162 457.843 848.054 402.389 905 359L904 358z"/>
<path style="fill:#cdff0a; stroke:none;" d="M748 410L749 411L748 410z"/>
<path style="fill:#6fa91a; stroke:none;" d="M347 593C323.091 567.043 299.945 537.41 283.742 506C279.639 498.049 275.811 489.979 271.752 482.001C270.448 479.438 268.714 475.029 265.105 475.466C260.929 475.971 262.348 481.49 263.352 484C266.637 492.214 271.291 500.088 275.247 508C291.587 540.68 313.739 571.606 339 598C312.052 592.441 293.707 579.162 273 561.421C268.269 557.367 256.007 540.337 249.152 542.662C243.63 544.535 248.953 550.769 251.044 553C258.968 561.456 268.017 569.086 277 576.389C286.803 584.358 296.279 592.108 308 597.127C321.539 602.925 336.093 605.489 349 612.873C364.098 621.51 374.816 637.125 390 645L390 646C358.537 646 330.419 638.493 303 622.85C297.902 619.941 279.116 604.505 273.623 609.032C269.448 612.471 277.786 617.51 280 618.999C289.923 625.673 300.239 631.535 311 636.742C329.567 645.724 349.625 650.302 370 652.714C379.36 653.823 390.014 651.063 399 654.549C412.368 659.736 425.731 677.172 436 687C420.873 687 406.15 690.999 391 691C372.83 691.001 355.895 689.746 340 679.935C336.76 677.935 326.66 668.256 322.758 671.083C318.758 673.98 324.903 679.615 327.015 681.331C335.633 688.33 346.32 693.031 357 695.844C385.965 703.475 415.947 687.147 444 696.217C456.636 700.302 466.851 710.852 476 720C452.063 716.972 430.224 719.572 407 711.308C405.047 710.613 389.106 704.693 392.176 711.954C394.229 716.809 403.486 719.238 408 720.935C426.454 727.874 444.885 724.773 464 726.089C487.411 727.702 500.717 744.944 513 763C505.603 760.922 498.207 760.459 491 757.6C482.871 754.374 474.534 748.872 466.005 746.963C462 746.067 458.453 749.756 461.608 753.351C464.491 756.637 471.053 758.308 475 759.999C488.373 765.729 504.742 767.322 517 775.093C520.3 777.185 532.682 792.838 535.301 790.914C540.543 787.061 533.336 765.723 532.576 760C529.322 735.517 531.513 711.492 525.881 687C524.733 682.008 524.193 668.068 519.492 665.238C515.536 662.856 514.062 668.174 514.309 671.001C515.096 680.024 517.948 689.022 519.272 698C520.548 706.663 521.986 715.281 522.83 724C524.115 737.281 525 750.651 525 764C516.513 754.192 501.797 739.24 497.589 727C494.85 719.035 497.048 707.21 497.83 699C499.496 681.503 502.315 663.487 499.561 646C497.671 633.998 493.833 622.487 490 611C488.847 607.545 487.758 601.044 483.805 599.662C474.915 596.553 480.503 613.145 481.72 616C487.513 629.588 492.313 644.086 492.961 659C493.826 678.929 488 698.917 488 719C478.577 709.982 461.005 699.831 455.433 687.999C450.754 678.064 452.983 665.487 453 655C453.029 637.205 452.23 620.347 447.873 603C445.037 591.707 440.924 580.793 436.6 570C435.459 567.15 433.97 560.872 430.043 560.752C426.916 560.656 426.978 564.871 427.095 567.001C427.467 573.764 430.442 580.678 432.692 587C443.782 618.161 445 649.16 445 682C434.995 675.743 418.635 663.668 413.314 653C410.657 647.672 410.561 640.765 409.339 635C405.205 615.509 403.882 595.559 400.196 576C397.776 563.162 395.471 550.426 391.333 538C390.279 534.833 389.321 527.979 385.738 526.662C382.137 525.339 380.45 529.088 380.869 532.005C381.929 539.39 385.669 546.673 387.349 554C394.142 583.633 398.945 614.889 403 645C388.115 632.879 367.576 619.489 358.81 602C353.544 591.493 353.908 580.33 352.83 569C351.452 554.516 349.607 540.216 346.349 526C343.155 512.063 338.604 498.52 333.997 485C332.783 481.438 331.04 472.879 326.806 471.751C322.87 470.703 322.213 475.314 322.779 478.001C324.219 484.832 327.457 491.395 329.667 498C340.127 529.266 341.051 560.953 347 593z"/>
<path style="fill:#a9ff28; stroke:none;" d="M673 599L672 599C669.033 578.831 668.822 564.207 673.873 544C674.664 540.836 680.005 528.513 676.4 526.327C673.569 524.61 671.716 529.113 671.044 531.005C668.437 538.346 666.928 546.374 665.4 554C661.469 573.618 667.345 589.821 666.871 609C666.566 621.36 661.63 632.892 660 645L659 645C651.481 624.307 642.592 604.832 645.286 582C645.953 576.339 648.772 564.248 642 562C636.879 582.788 639.197 607.793 645.745 628C648.637 636.922 656.371 646.766 657.171 656C658.011 665.701 651.963 677.491 650 687L649 687L625.436 645L623 612C613.098 616.994 616.813 636.293 619.298 645C624.629 663.68 642.179 676.273 646.471 695C648.561 704.12 645.009 713.239 643 722L642 722L629.066 693L623 667L621 667C611.751 686.33 632.744 707.45 637.239 725C640.584 738.055 632.389 747.234 629 759L628 759C627.095 748.638 624.719 737.385 623.031 727.019C622.651 724.688 620.347 720.515 618.113 724.337C613.069 732.965 621.341 752.82 622.546 762C623.513 769.362 619.398 775.402 617 782C624.956 781.742 629.727 775.586 636 771.358C650.042 761.893 664.847 754.855 678 743.919C683.049 739.721 689.461 736.01 690 729C681.992 729.891 676.179 736.964 670 741.626C658.153 750.563 645.487 759.696 632 766C636.56 757.988 638.96 745.088 645.499 738.637C659.139 725.182 683.019 724.092 698 711.675C702.332 708.085 720.018 694.428 718.248 688.322C716.359 681.805 707.552 692.343 706.196 694.001C689.601 714.292 668.236 716.652 647 729C649.845 720.103 650.231 705.318 657.133 698.758C665.226 691.066 676.463 687.58 686 682.127C695.829 676.508 704.12 669.063 711.985 661C716.897 655.965 725.696 648.608 724 641C713.032 644.728 706.569 657.319 698 664.561C684.807 675.711 668.578 681.647 655 692C657.22 683.42 657.718 671.488 662.728 664.039C671.276 651.33 689.884 642.192 702 633.105C708.914 627.919 730.669 614.928 730.379 605.153C730.16 597.786 716.409 612.599 715 613.911C699.511 628.333 680.944 639.081 665 653C666.616 640.485 668.649 623.195 676.529 613.001C687.632 598.638 707.786 591.59 721 578.961C727.688 572.568 734.71 566.055 740.699 559C742.212 557.218 746.053 553.284 744.593 550.623C741.796 545.524 730.729 560.212 728.985 562C714.31 577.043 696.873 589.97 679 601C683.951 580.109 696.495 556.76 708.333 539C711.544 534.183 724.662 521.285 723.031 515.323C722.062 511.78 718.221 514.684 716.898 516.149C712.351 521.183 708.46 527.378 704.67 533C691.962 551.852 676.915 576.25 673 599z"/>
<path style="fill:#010101; stroke:none;" d="M339 598L340 599L339 598M678 601L679 602L678 601M664 653L665 654L664 653z"/>
<path style="fill:#cdff0a; stroke:none;" d="M603 800L604 801L603 800M612 805L613 806L612 805z"/>
<path style="fill:#ffffff; stroke:none;" d="M1243 916C1236.97 913.15 1221.31 914.456 1218.64 922.055C1215.43 931.217 1221.11 949.393 1222.42 959C1222.78 961.584 1222.72 975.844 1226.87 975.079C1231.46 974.231 1232.69 958.785 1233.63 955C1234.87 950.008 1236.12 945.028 1237.21 940C1238.94 931.99 1240.78 923.887 1243 916M485 918C487.679 926.097 503.589 926.673 507.397 937C510.243 944.72 508 956.808 508 965C508 986.78 512.772 1015.12 506.225 1036C503.465 1044.8 495.991 1050.21 487 1051L487 1054L534 1054L534 1051C521.017 1049.86 516.296 1038.64 515.17 1027C512.543 999.855 515 971.281 515 944C541.02 970.568 564.359 1000.19 589.05 1028C596.744 1036.67 607.737 1055.7 619 1059L619 958C619 941.117 620.424 925.859 639 921L639 919L594 918L610.779 936L612 963L612 1014C592.267 991.412 572.963 968.431 553.05 946C546.233 938.321 538.101 923.702 528.985 919.028C518.647 913.727 496.6 918 485 918M769 946L766 984C777.186 980.179 780.902 951.451 798.956 957.933C807.245 960.909 804 978.091 804 985L804 1028C804 1033.44 805.328 1041.13 802.142 1045.89C798.868 1050.79 792.285 1050.96 787 1051L787 1054L845 1054C841.237 1048.19 831.989 1051.83 828.893 1043.98C826.522 1037.97 828 1029.37 828 1023L828 977C828 970.623 826.378 959.309 835.005 957.746C844.402 956.043 853.459 966.75 857.179 974C859.232 978.002 859.373 982.479 864 984L866 946C861.557 946.728 858.531 950.164 854 950.812C835.345 953.48 815.812 952 797 952C789.081 952 776.561 953.813 772 946L769 946M698 948L672.85 1007L656.907 1041L637 1054L684 1054L684 1051C664.312 1050.59 667.863 1036.58 673.719 1023C676.435 1016.7 677.941 1008.37 686.001 1008.02C690.684 1007.82 699.767 1006.42 703.582 1009.6C710.032 1014.99 713.67 1029.42 717.218 1037C718.487 1039.71 720.824 1043.79 719.647 1046.87C718.334 1050.29 714.112 1050.72 711 1051L711 1054L763 1054C759.279 1048.19 750.125 1047.78 745.52 1041C732.233 1021.43 724.517 997.257 714.258 976C710.602 968.423 706.542 950.671 698 948M1255 1018C1255 1025.51 1252.81 1043.85 1258.43 1049.36C1262.85 1053.69 1271.16 1054.89 1277 1055.92C1295.85 1059.23 1324.26 1055.57 1329.47 1033C1335.66 1006.16 1307.47 998.41 1290 986.921C1282.14 981.749 1271.85 970.832 1279.43 961.044C1290.32 946.998 1307.87 961.069 1315.08 971C1318.05 975.088 1319.64 980.081 1325 981C1325 974.856 1327.66 960.445 1323.26 955.702C1319.67 951.836 1310.95 950.987 1306 950.286C1289.38 947.928 1265.3 949.79 1257.93 968C1244.35 1001.55 1297.5 1005.33 1307.07 1029C1314.84 1048.21 1292.06 1055.86 1279 1044.79C1271.17 1038.15 1264.5 1020.81 1255 1018M999 952L999 956C1004.3 956.044 1009.56 956.349 1011.74 962.018C1014.47 969.139 1013 978.507 1013 986C1013 1002.99 1017.31 1026.79 1012.2 1043C1010.2 1049.32 1004.99 1050.74 999 1051L999 1054L1050 1054L1050 1051C1029.97 1050.12 1036 1020.33 1036 1006C1039.45 1006 1044.57 1005.09 1047.61 1007.03C1051.22 1009.33 1052.86 1015.4 1054.86 1019C1060.36 1028.92 1067.1 1046.97 1077.29 1052.82C1083.89 1056.61 1097.53 1054 1105 1054L1173 1054C1179.5 1054 1197.13 1057.12 1202.26 1052.97C1206.47 1049.57 1204.98 1029.47 1205 1024C1196.83 1026.55 1190.94 1039.88 1183 1044.91C1180.19 1046.69 1177.21 1047.97 1174 1048.84C1147.21 1056.1 1154 1021.67 1154 1005C1161.76 1007.29 1176.87 1008.8 1184.94 1007.81C1189.11 1007.3 1190.72 1000.65 1187.4 998.028C1184.73 995.921 1180 997.531 1177 997.831C1169.3 998.601 1161.74 999 1154 999C1154 988.664 1150.1 967.847 1156.74 959.228C1167.84 944.815 1191.37 969.111 1195 979L1199 979L1197.97 953.603L1177 952L1117 952C1119.1 958.33 1128.18 955.551 1130.97 963.004C1133.2 968.965 1132 976.742 1132 983L1132 1024C1132 1030.76 1133.47 1039.86 1129.86 1045.94C1125.13 1053.93 1111.67 1051.31 1105 1047.65C1088.23 1038.45 1075.75 1016.43 1067 1000C1084.83 993.241 1096.9 965.344 1075 955.189C1059.8 948.143 1041.93 951.896 1026 952.91C1017.21 953.47 1007.9 952 999 952M874 952C876.287 958.892 886.471 955.648 888.517 965C893.42 987.417 881.724 1015.09 893.349 1036C907.22 1060.95 951.036 1065.95 968.211 1042C982.96 1021.43 972.314 994.009 976.465 971C977.323 966.24 979.005 961.607 983.044 958.653C986.754 955.939 991.424 956.751 993 952L950 953L950 955C955.767 956.753 961.192 956.847 965.2 962.094C971.075 969.786 970 982.8 970 992C970 1015.38 970.216 1048.52 938 1046.96C907.5 1045.49 911 1008.18 911 987C911 979.438 908.859 967.77 912.938 961.044C915.953 956.073 921.095 956.464 926 955L926 953L901 952.957L874 952z"/>
<path style="fill:#010101; stroke:none;" d="M1036 1001C1041.31 1001 1046.98 1001.58 1052 999.517C1064.85 994.237 1066.64 969.392 1056.79 960.394C1047.9 952.285 1037.84 957.645 1036.43 968C1035.88 971.983 1036 975.989 1036 980L1036 1001M691 981L683 1002L701 1002L691 981z"/>
<path style="fill:#ffffff; stroke:none;" d="M217 1125C219.592 1132.37 230.488 1128.46 232.532 1139C234.493 1149.11 233 1160.72 233 1171L233 1233C233 1246 232.809 1257.31 217 1258L217 1261C229.299 1261 241.714 1260.5 254 1261.04C273.216 1261.88 293.181 1264.78 310 1252.96C340.664 1231.4 325.713 1186.6 289 1185C310.517 1174.76 327.918 1141.86 298 1128.68C281.32 1121.33 262.473 1124.76 245 1125.62C235.854 1126.08 226.23 1125 217 1125z"/>
<path style="fill:#010101; stroke:none;" d="M258 1184C263.986 1184 270.435 1184.73 275.999 1182.08C291.049 1174.92 294.51 1145.24 281.895 1134.39C274.114 1127.71 259.551 1127.92 258.174 1140C257.466 1146.22 258 1152.75 258 1159L258 1184z"/>
<path style="fill:#ffffff; stroke:none;" d="M458 1258L458 1261L504 1261L504 1258C484.498 1257.58 488.625 1243.16 494.281 1230C497.217 1223.17 498.3 1215.17 507.001 1215C511.577 1214.92 520.714 1213.32 524.351 1216.6C530.559 1222.2 534.209 1236.39 537.691 1244C538.943 1246.74 541.272 1250.76 540.292 1253.87C539.09 1257.68 534.272 1257.85 531 1258L531 1261L583 1261L583 1258C569.2 1256.87 562.99 1244.51 557.861 1233C546.221 1206.89 532.977 1181.4 522 1155C514.211 1157.44 510.86 1172.99 507.85 1180C499.983 1198.33 492.188 1216.69 484.281 1235C479.063 1247.08 472.35 1257.69 458 1258M398 1156.42C378.884 1158.96 360.408 1166.34 350.338 1184C328.144 1222.93 361.92 1269.01 405 1263.71C432.292 1260.36 453.162 1238.42 454.91 1211C456.842 1180.67 428.528 1152.38 398 1156.42M1002 1156.42C982.884 1158.96 964.408 1166.34 954.338 1184C932.144 1222.93 965.92 1269.01 1009 1263.71C1036.29 1260.36 1057.16 1238.42 1058.91 1211C1060.84 1180.67 1032.53 1152.38 1002 1156.42M1125 1156.42C1105.88 1158.96 1087.41 1166.34 1077.34 1184C1055.14 1222.93 1088.92 1269.01 1132 1263.71C1159.29 1260.36 1180.16 1238.42 1181.91 1211C1183.84 1180.67 1155.53 1152.38 1125 1156.42M587 1159C589.14 1165.45 598.38 1162.12 600.566 1170C605.073 1186.25 601 1209.11 601 1226C601 1233.63 602.711 1243.68 600.347 1250.98C598.396 1257.01 592.53 1257.88 587 1258L587 1261L639 1261L639 1258C618.394 1257.56 625 1227.42 625 1213C647.503 1213 648.734 1245.72 664.174 1258.68C671.977 1265.23 695.085 1261 705 1261L705 1258C680.037 1255.82 667.835 1224.67 655 1207C673.852 1200.98 684.802 1171.73 663 1161.91C647.883 1155.09 629.798 1159.01 614 1159.91C605.212 1160.4 595.896 1159 587 1159M829 1159C831.128 1165.41 840.153 1162.18 842.427 1170C844.598 1177.47 843 1187.27 843 1195C843 1211.56 847.019 1234.1 842.427 1250C840.596 1256.34 834.844 1257.74 829 1258L829 1261L881 1261L881 1258C860.172 1257.56 867 1227.77 867 1213C889.55 1213 890.318 1245.93 906.09 1258.68C914.158 1265.21 936.894 1261 947 1261L947 1258C922.73 1255.88 908.274 1225.35 897 1207C914.536 1201.4 927.12 1172.21 906 1162.52C890.271 1155.3 872.486 1158.97 856 1159.91C847.212 1160.4 837.896 1159 829 1159M706 1159L706 1163C711.327 1163.02 716.973 1163.22 719.258 1169.02C721.778 1175.41 720 1185.2 720 1192L720 1232C720 1237.9 721.181 1245.32 719.347 1250.98C717.396 1257.01 711.53 1257.88 706 1258L706 1261C731.428 1261 763.182 1267.53 787 1257.12C823.111 1241.35 827.895 1187.87 794 1167.07C770.119 1152.41 732.817 1159 706 1159M1192 1159L1192 1163C1199.01 1163.33 1206.58 1166.99 1209.26 1174C1212.14 1181.53 1209.62 1192.21 1209.09 1200C1207.88 1217.67 1216.84 1254.28 1192 1258L1192 1261L1231 1261L1231 1258C1219.95 1257 1216.02 1249 1214.58 1239C1212.03 1221.21 1215 1201.1 1215 1183L1216 1183C1221.86 1203.33 1235.88 1224.49 1246.14 1243C1249.51 1249.07 1251.79 1258.87 1259 1261L1291 1181L1292 1181C1294.16 1198.08 1294.59 1215.79 1295.01 1233C1295.16 1239.08 1297.53 1246.08 1294.99 1251.96C1292.74 1257.17 1287.01 1257.78 1282 1258L1282 1261L1331 1261L1331 1258C1320.09 1257.01 1320.34 1248.95 1319.29 1240C1317.49 1224.82 1317.95 1209.25 1316.91 1194C1316.4 1186.52 1314.35 1177.4 1316.43 1170.02C1318.72 1161.91 1328.77 1165.71 1331 1159C1321.99 1159 1304.05 1155.55 1296.21 1160.18C1290.96 1163.28 1288.93 1172.68 1286.8 1178C1280.33 1194.17 1269.96 1211.83 1267 1229C1255.02 1217.15 1247.9 1194.06 1240.24 1179C1237.38 1173.36 1233.77 1163.11 1227.96 1160.03C1219.48 1155.53 1201.54 1159 1192 1159z"/>
<path style="fill:#010101; stroke:none;" d="M389 1163.53C377.946 1166.08 372.835 1176.8 370.808 1187C367.222 1205.04 369.532 1228.51 379.89 1244C385.882 1252.96 395.722 1260.07 407 1257.47C419.198 1254.66 425.23 1242.25 427.388 1231C432.001 1206.96 425.081 1155.19 389 1163.53M993 1163.53C981.945 1166.08 976.835 1176.8 974.808 1187C971.222 1205.04 973.532 1228.51 983.89 1244C989.882 1252.96 999.722 1260.07 1011 1257.47C1023.2 1254.66 1029.23 1242.25 1031.39 1231C1036 1206.96 1029.08 1155.19 993 1163.53M1116 1163.53C1104.95 1166.08 1099.84 1176.8 1097.81 1187C1094.22 1205.04 1096.53 1228.51 1106.89 1244C1112.88 1252.96 1122.72 1260.07 1134 1257.47C1146.2 1254.66 1152.23 1242.25 1154.39 1231C1159 1206.96 1152.08 1155.19 1116 1163.53M625 1208C630.362 1208 635.981 1208.47 640.999 1206.2C653.998 1200.31 655.059 1174.76 643.957 1166.51C637.462 1161.69 626.435 1163.02 625.189 1172C624.513 1176.87 625 1182.09 625 1187L625 1208M750.015 1164.65C739.649 1168 743 1184.63 743 1193L743 1234C743 1239.53 741.82 1246.94 745.089 1251.79C749.876 1258.88 762.149 1256.98 769 1254.78C796.521 1245.92 795.017 1201.61 784.215 1181C778.092 1169.32 763.628 1160.25 750.015 1164.65M867 1208C872.395 1208 877.988 1208.48 882.996 1206.08C895.547 1200.07 896.991 1174.74 885.956 1166.51C880.047 1162.11 868.583 1162.45 867.214 1171C866.39 1176.15 867 1181.8 867 1187L867 1208M511 1188L503 1209L521 1209L511 1188M260.318 1191.74C255.303 1194.3 258 1212.02 258 1217C258 1234.85 252.828 1260.25 279 1255.54C282.435 1254.92 285.91 1253.82 288.996 1252.18C314.072 1238.85 298.898 1195.92 275 1191.62C270.976 1190.89 264.121 1189.8 260.318 1191.74z"/>
</svg>
